<mxfile host="app.diagrams.net" agent="Mozilla/5.0 (X11; Linux x86_64) AppleWebKit/537.36 (KHTML, like Gecko) Chrome/127.0.0.0 Safari/537.36" version="24.8.0">
  <diagram id="Ht1M8jgEwFfnCIfOTk4-" name="Page-1">
    <mxGraphModel dx="1364" dy="793" grid="1" gridSize="10" guides="1" tooltips="1" connect="1" arrows="1" fold="1" page="1" pageScale="1" pageWidth="1169" pageHeight="827" math="0" shadow="0">
      <root>
        <mxCell id="0" />
        <mxCell id="1" parent="0" />
        <mxCell id="UEzPUAAOIrF-is8g5C7q-109" value="data lake CLI" style="outlineConnect=0;gradientColor=none;fontColor=#545B64;strokeColor=none;fillColor=#879196;dashed=0;verticalLabelPosition=bottom;verticalAlign=top;align=center;html=1;fontSize=12;fontStyle=0;aspect=fixed;shape=mxgraph.aws4.illustration_desktop;pointerEvents=1;labelBackgroundColor=#ffffff;" parent="1" vertex="1">
          <mxGeometry x="400" y="133.93" width="71.43" height="65" as="geometry" />
        </mxCell>
        <mxCell id="UEzPUAAOIrF-is8g5C7q-110" value="data lake console" style="outlineConnect=0;gradientColor=none;fontColor=#545B64;strokeColor=none;fillColor=#879196;dashed=0;verticalLabelPosition=bottom;verticalAlign=top;align=center;html=1;fontSize=12;fontStyle=0;aspect=fixed;shape=mxgraph.aws4.illustration_notification;pointerEvents=1;labelBackgroundColor=#ffffff;" parent="1" vertex="1">
          <mxGeometry x="890" y="117.92999999999999" width="100" height="81" as="geometry" />
        </mxCell>
        <mxCell id="P8Rd0Dlp88EgHuviOkhW-2" value="&lt;font style=&quot;font-size: 14px;&quot;&gt;PeakTime&amp;nbsp;&lt;/font&gt;&lt;div style=&quot;font-size: 14px;&quot;&gt;&lt;font style=&quot;font-size: 14px;&quot;&gt;API&lt;/font&gt;&lt;/div&gt;" style="rounded=1;whiteSpace=wrap;html=1;" vertex="1" parent="1">
          <mxGeometry x="160" y="138.93" width="120" height="60" as="geometry" />
        </mxCell>
        <mxCell id="P8Rd0Dlp88EgHuviOkhW-3" value="" style="shape=image;verticalLabelPosition=bottom;labelBackgroundColor=default;verticalAlign=top;aspect=fixed;imageAspect=0;image=https://cdn.freelogovectors.net/wp-content/uploads/2023/11/make-logo-freelogovectors.net_.png;" vertex="1" parent="1">
          <mxGeometry x="610" y="100" width="190" height="116.85" as="geometry" />
        </mxCell>
        <mxCell id="P8Rd0Dlp88EgHuviOkhW-5" value="" style="endArrow=classic;startArrow=classic;html=1;rounded=0;" edge="1" parent="1">
          <mxGeometry width="50" height="50" relative="1" as="geometry">
            <mxPoint x="290" y="168.43" as="sourcePoint" />
            <mxPoint x="370" y="168.43" as="targetPoint" />
          </mxGeometry>
        </mxCell>
        <mxCell id="P8Rd0Dlp88EgHuviOkhW-6" value="항공권 확인 Y/N" style="text;html=1;align=center;verticalAlign=middle;whiteSpace=wrap;rounded=0;" vertex="1" parent="1">
          <mxGeometry x="280" y="122.5" width="100" height="50" as="geometry" />
        </mxCell>
        <mxCell id="P8Rd0Dlp88EgHuviOkhW-8" value="" style="endArrow=classic;html=1;rounded=0;entryX=-0.021;entryY=0.578;entryDx=0;entryDy=0;entryPerimeter=0;" edge="1" parent="1" target="P8Rd0Dlp88EgHuviOkhW-3">
          <mxGeometry width="50" height="50" relative="1" as="geometry">
            <mxPoint x="490" y="167.93" as="sourcePoint" />
            <mxPoint x="540" y="117.93" as="targetPoint" />
          </mxGeometry>
        </mxCell>
        <mxCell id="P8Rd0Dlp88EgHuviOkhW-9" value="항공권 Y 시&lt;div&gt;Make.com API 호출&lt;/div&gt;" style="text;html=1;align=center;verticalAlign=middle;whiteSpace=wrap;rounded=0;" vertex="1" parent="1">
          <mxGeometry x="483" y="128.5" width="120" height="30" as="geometry" />
        </mxCell>
        <mxCell id="P8Rd0Dlp88EgHuviOkhW-10" value="" style="endArrow=classic;html=1;rounded=0;" edge="1" parent="1">
          <mxGeometry width="50" height="50" relative="1" as="geometry">
            <mxPoint x="800" y="162.5" as="sourcePoint" />
            <mxPoint x="880" y="162.5" as="targetPoint" />
          </mxGeometry>
        </mxCell>
        <mxCell id="P8Rd0Dlp88EgHuviOkhW-11" value="Push&lt;div&gt;Alarm&lt;/div&gt;" style="text;html=1;align=center;verticalAlign=middle;whiteSpace=wrap;rounded=0;" vertex="1" parent="1">
          <mxGeometry x="780" y="128.5" width="120" height="30" as="geometry" />
        </mxCell>
      </root>
    </mxGraphModel>
  </diagram>
</mxfile>
